<svg width="32" height="33" viewBox="0 0 32 33" fill="none" xmlns="http://www.w3.org/2000/svg">
<g id="Icon">
<path id="Vector" d="M8.17674 13.419L8.17676 13.419L8.5303 13.0654C8.53031 13.0654 8.53031 13.0654 8.53032 13.0654C8.62794 12.9678 8.78621 12.9678 8.88385 13.0654C8.88385 13.0654 8.88385 13.0654 8.88385 13.0654L15.6464 19.828L16 20.1816L16.3535 19.828L23.1161 13.0654C23.2138 12.9678 23.372 12.9678 23.4696 13.0654L23.8232 13.419C23.9208 13.5167 23.9208 13.6749 23.8232 13.7725L16.1767 21.419C16.0791 21.5166 15.9209 21.5166 15.8232 21.419L8.17674 13.7725C8.17674 13.7725 8.17674 13.7725 8.17674 13.7725C8.07911 13.6749 8.07911 13.5166 8.17674 13.419Z" fill="black" stroke="black"/>
</g>
</svg>
