<svg width="28" height="41" viewBox="0 0 28 41" fill="none" xmlns="http://www.w3.org/2000/svg">
<g id="Frame 1" clip-path="url(#clip0_24_127)">
<path id="Vector" d="M13.8412 20.0292C13.8412 16.3543 16.8244 13.36 20.5193 13.36C24.1991 13.36 27.1975 16.3392 27.1975 20.0292C27.1975 23.704 24.2143 26.6983 20.5193 26.6983C16.8395 26.6983 13.8412 23.704 13.8412 20.0292Z" fill="#1ABCFE"/>
<path id="Vector_2" d="M0.5 33.3525C0.5 29.6777 3.48321 26.6833 7.17816 26.6833H13.8563V33.3525C13.8563 37.0274 10.8731 40.0217 7.17816 40.0217C3.48321 40.0217 0.5 37.0425 0.5 33.3525Z" fill="#0ACF83"/>
<path id="Vector_3" d="M13.8412 0.0368514V13.3601H20.5193C24.1991 13.3601 27.1975 10.3809 27.1975 6.69091C27.1975 3.01605 24.2143 0.0217285 20.5193 0.0217285H13.8412V0.0368514Z" fill="#FF7262"/>
<path id="Vector_4" d="M0.5 6.70604C0.5 10.3809 3.48321 13.3752 7.17816 13.3752H13.8563V0.0368652H7.17816C3.48321 0.0368652 0.5 3.01607 0.5 6.70604Z" fill="#F24E1E"/>
<path id="Vector_5" d="M0.5 20.0292C0.5 23.704 3.48321 26.6983 7.17816 26.6983H13.8563V13.36H7.17816C3.48321 13.36 0.5 16.3543 0.5 20.0292Z" fill="#A259FF"/>
</g>
<defs>
<clipPath id="clip0_24_127">
<rect width="26.6975" height="40" fill="white" transform="translate(0.5 0.0217285)"/>
</clipPath>
</defs>
</svg>
