<svg version="1.1" id="Layer_1" xmlns="http://www.w3.org/2000/svg" viewBox="0 0 706.7 151.7">
<style type="text/css">
    .st0 { stroke: #000000; stroke-width: 3; stroke-miterlimit:10; }
</style>
<g>
    <path class="st0" d="M58.4,69.4c5.6,1.4,10.2,4.3,13.9,8.8c3.6,4.5,5.5,9.7,5.5,15.5c0,7-2.5,12.9-7.4,17.8c-4.9,4.9-10.8,7.3-17.7,7.3H8.4v-3.7h44.2c5.9,0,10.9-2.1,15.1-6.3c4.2-4.2,6.3-9.2,6.3-15.1c0-3.9-1-7.4-2.9-10.7c-1.9-3.3-4.5-5.8-7.8-7.7c-3.3-1.9-6.8-2.8-10.7-2.8H8.4v-3.7h38.4c5.9,0,10.9-2.1,15.1-6.3c4.2-4.2,6.3-9.2,6.3-15.1c0-5.9-2.1-10.9-6.3-15.1c-4.2-4.2-9.2-6.3-15.1-6.3H8.4v-3.7h38.4c7,0,12.9,2.4,17.8,7.3c4.9,4.9,7.3,10.8,7.3,17.8c0,4.7-1.2,9-3.7,13C65.7,64.2,62.5,67.3,58.4,69.4z"/>
    <path class="st0" d="M180.5,47.3c0,5.5-1.6,10.5-4.9,14.8c-3.3,4.3-7.4,7.3-12.5,9l17.4,47.8h-4L159.4,72c-1.6,0.3-2.9,0.4-4,0.4h-43.1v-3.7h43.1c5.9,0,10.9-2.1,15.1-6.3c4.2-4.2,6.3-9.2,6.3-15.1c0-5.9-2.1-10.9-6.3-15.1c-4.2-4.2-9.2-6.3-15.1-6.3h-43.1v-3.7h43.1c7,0,12.9,2.4,17.8,7.3C178.1,34.4,180.5,40.3,180.5,47.3z"/>
    <path class="st0" d="M254.4,22.1l35.1,96.7h-3.9l-33.3-91.3l-33.1,91.3h-4l35.2-96.7H254.4z"/>
    <path class="st0" d="M364.8,22.1h3.7v96.7h-3.7l-57.2-96.7h4.3l52.9,89.4V22.1z"/>
    <path class="st0" d="M423.5,22.1c8.7,0,16.8,2.2,24.2,6.5c7.4,4.3,13.3,10.2,17.6,17.6c4.3,7.4,6.5,15.5,6.5,24.2c0,8.7-2.2,16.8-6.5,24.2c-4.3,7.4-10.2,13.3-17.6,17.6c-7.4,4.3-15.5,6.5-24.2,6.5H403v-3.7h20.4c8.1,0,15.6-2,22.4-5.9c6.9-4,12.3-9.4,16.2-16.2c4-6.9,5.9-14.3,5.9-22.4c0-8.1-2-15.6-5.9-22.4c-4-6.8-9.4-12.2-16.2-16.2c-6.9-4-14.3-6-22.4-6H403v-3.7H423.5z"/>
    <path class="st0" d="M574.6,25.9h-68.1v-3.7h68.1V25.9z M563.1,72.4h-56.6v-3.7h56.6V72.4z M574.6,118.8h-68.1v-3.7h68.1V118.8z"/>
    <path class="st0" d="M677.5,47.3c0,5.5-1.6,10.5-4.9,14.8c-3.3,4.3-7.4,7.3-12.5,9l17.4,47.8h-4L656.3,72c-1.6,0.3-2.9,0.4-4,0.4h-43.1v-3.7h43.1c5.9,0,10.9-2.1,15.1-6.3c4.2-4.2,6.3-9.2,6.3-15.1c0-5.9-2.1-10.9-6.3-15.1c-4.2-4.2-9.2-6.3-15.1-6.3h-43.1v-3.7h43.1c7,0,12.9,2.4,17.8,7.3C675,34.4,677.5,40.3,677.5,47.3z"/>
</g>
</svg>
