<svg width="148" height="56" viewBox="0 0 148 56" fill="none" xmlns="http://www.w3.org/2000/svg">
<g id="Logo=2, Color=Dark">
<g id="Logo">
<path fill-rule="evenodd" clip-rule="evenodd" d="M16.5695 16.75L5.06002 39.25H-5.75073L-0.933983 29.925H-1.15011C-5.12386 35.0835 -11.0529 38.4794 -19.5007 39.25V30.0541C-19.5007 30.0541 -14.0964 29.7349 -10.9194 26.3947H-19.5007V16.7502H-9.85622V24.6826L-9.63976 24.6818L-5.69861 16.7502H1.59527V24.6323L1.81164 24.632L5.90064 16.75H16.5695ZM79.3323 36.7665H82.4384V18.9375H79.3323V36.7665ZM62.2085 36.5844C62.8835 36.8651 63.57 37.0054 64.2678 37.0054C65.4207 37.0054 66.4523 36.7248 67.3626 36.1634C68.2727 35.6022 68.9782 34.8286 69.4788 33.8424C69.9795 32.8488 70.2297 31.7223 70.2297 30.4632C70.2297 29.2041 69.9718 28.0777 69.4561 27.084C68.9402 26.0904 68.2235 25.3205 67.3056 24.7744C66.3878 24.2206 65.3448 23.9476 64.1767 23.9552C63.4335 23.9552 62.7205 24.0993 62.0377 24.3875C61.3551 24.6758 60.7862 25.0854 60.3311 25.6163C60.296 25.6567 60.2618 25.6976 60.2287 25.7388V18.9489H57.1112V36.7666H60.206L60.1997 35.1021C60.2797 35.2002 60.3653 35.2961 60.4562 35.3898C60.9492 35.8981 61.5333 36.2962 62.2085 36.5844ZM65.3942 33.7059C64.886 34.0169 64.3057 34.1724 63.6533 34.1724C63.0086 34.1724 62.417 34.0131 61.8785 33.6946C61.3398 33.3683 60.9113 32.9247 60.5927 32.3633C60.2817 31.8021 60.1262 31.1648 60.1262 30.4518C60.1187 29.7388 60.2703 29.1017 60.5813 28.5404C60.9 27.9715 61.3285 27.5316 61.8671 27.2206C62.4056 26.902 63.0011 26.7465 63.6533 26.7541C64.3057 26.7465 64.886 26.8982 65.3942 27.2092C65.91 27.5126 66.3043 27.9488 66.5775 28.5176C66.8581 29.0789 66.9985 29.7237 66.9985 30.4518C66.9985 31.1801 66.8581 31.8248 66.5775 32.3861C66.3043 32.9474 65.91 33.3873 65.3942 33.7059ZM21.0693 20.0184H24.6192L27.7947 31.6154L31.1728 20.0184H34.1311L37.7947 31.3827L40.844 20.0184H44.098L39.2966 36.7665H36.236L32.5105 25.6645L29.0907 36.7665H25.996L21.0693 20.0184ZM49.3405 37.0623C48.104 37.0699 46.989 36.7968 45.9954 36.2431C45.0093 35.6818 44.2319 34.9043 43.6629 33.9106C43.1017 32.917 42.821 31.783 42.821 30.5086C42.821 29.2723 43.1093 28.1535 43.6858 27.1523C44.2622 26.151 45.0434 25.3697 46.0295 24.8084C47.0157 24.2471 48.1154 23.9665 49.329 23.9665C50.6944 23.9665 51.889 24.2699 52.913 24.8767C53.9447 25.4835 54.7145 26.3444 55.2228 27.4595C55.7385 28.5669 55.9244 29.8374 55.7803 31.271H46.0344C46.0617 31.8421 46.2042 32.3618 46.4619 32.8298C46.7502 33.3455 47.1522 33.7475 47.6679 34.0358C48.1838 34.324 48.7602 34.4681 49.3974 34.4681C49.8828 34.4605 50.3342 34.3771 50.7513 34.2179C51.1685 34.051 51.5212 33.8273 51.8094 33.5465C52.1053 33.2659 52.3139 32.9474 52.4353 32.5909H55.6893C55.4921 33.4631 55.0977 34.2406 54.506 34.9233C53.9143 35.5984 53.171 36.1255 52.2759 36.5048C51.3809 36.884 50.4024 37.0699 49.3405 37.0623ZM46.4733 28.1421C46.2915 28.4591 46.1655 28.8004 46.0954 29.1661H52.5558C52.5089 28.7041 52.3663 28.2832 52.128 27.9032C51.8549 27.4557 51.4833 27.1105 51.013 26.8678C50.5428 26.6175 50.0118 26.4924 49.4202 26.4924C48.7906 26.4924 48.2179 26.6365 47.702 26.9247C47.1863 27.2129 46.7767 27.6188 46.4733 28.1421ZM72.517 24.2282C72.517 23.2118 72.7483 22.3092 73.211 21.5203C73.6736 20.7239 74.3223 20.1057 75.1566 19.6657C75.9985 19.2182 76.9809 18.9868 78.1034 18.9717V21.7365C77.58 21.7441 77.1325 21.854 76.7609 22.0664C76.3968 22.2712 76.1161 22.5708 75.9189 22.9653C75.7374 23.3284 75.6394 23.7494 75.625 24.2282H78.0352V26.8565H75.6232V36.7665H72.517V26.8565H70.5145V24.2282H72.517ZM90.3341 37.0395C89.0673 37.0395 87.9333 36.7626 86.9321 36.209C85.9385 35.6476 85.1572 34.874 84.5883 33.8878C84.027 32.8942 83.7463 31.7678 83.7463 30.5086C83.7463 29.242 84.027 28.1117 84.5883 27.1181C85.1572 26.1168 85.9385 25.3393 86.9321 24.7856C87.9333 24.2319 89.0673 23.955 90.3341 23.955C91.6083 23.955 92.7462 24.2319 93.7473 24.7856C94.7562 25.3393 95.5413 26.113 96.1026 27.1067C96.6638 28.1003 96.9483 29.2343 96.956 30.5086C96.9483 31.7678 96.6638 32.8942 96.1026 33.8878C95.5488 34.874 94.7676 35.6476 93.7587 36.209C92.75 36.7626 91.6083 37.0395 90.3341 37.0395ZM90.3341 34.1837C91.0016 34.1837 91.5932 34.032 92.109 33.7286C92.6248 33.4176 93.023 32.9852 93.3037 32.4315C93.5843 31.8702 93.7246 31.2292 93.7246 30.5086C93.7246 29.7805 93.5843 29.1357 93.3037 28.5744C93.023 28.0131 92.6248 27.5808 92.109 27.2774C91.5932 26.9664 91.0016 26.8109 90.3341 26.8109C89.6742 26.8109 89.0863 26.9664 88.5705 27.2774C88.0623 27.5808 87.6678 28.0131 87.3872 28.5744C87.1066 29.1357 86.9701 29.7805 86.9776 30.5086C86.9776 31.2292 87.118 31.8702 87.3986 32.4315C87.6868 32.9852 88.0812 33.4176 88.5818 33.7286C89.0901 34.032 89.6742 34.1837 90.3341 34.1837ZM100.312 24.2282H96.8536L100.597 36.7665H103.623L106.085 28.7583L108.743 36.7665H111.724L115.479 24.2282H112.35L110.22 32.0325L107.867 24.2282H104.841L102.499 32.2044L100.312 24.2282Z" fill="black"/>
<path d="M16.5695 16.75L5.06002 39.25H-5.75073L-0.933983 29.925H-1.15011C-5.12386 35.0835 -11.0529 38.4794 -19.5007 39.25V30.0541C-19.5007 30.0541 -14.0964 29.7349 -10.9194 26.3947H-19.5007V16.7502H-9.85622V24.6826L-9.63976 24.6818L-5.69861 16.7502H1.59527V24.6323L1.81164 24.632L5.90064 16.75H16.5695ZM79.3323 36.7665H82.4384V18.9375H79.3323V36.7665ZM62.2085 36.5844C62.8835 36.8651 63.57 37.0054 64.2678 37.0054C65.4207 37.0054 66.4523 36.7248 67.3626 36.1634C68.2727 35.6022 68.9782 34.8286 69.4788 33.8424C69.9795 32.8488 70.2297 31.7223 70.2297 30.4632C70.2297 29.2041 69.9718 28.0777 69.4561 27.084C68.9402 26.0904 68.2235 25.3205 67.3056 24.7744C66.3878 24.2206 65.3448 23.9476 64.1767 23.9552C63.4335 23.9552 62.7205 24.0993 62.0377 24.3875C61.3551 24.6758 60.7862 25.0854 60.3311 25.6163C60.296 25.6567 60.2618 25.6976 60.2287 25.7388V18.9489H57.1112V36.7666H60.206L60.1997 35.1021C60.2797 35.2002 60.3653 35.2961 60.4562 35.3898C60.9492 35.8981 61.5333 36.2962 62.2085 36.5844ZM65.3942 33.7059C64.886 34.0169 64.3057 34.1724 63.6533 34.1724C63.0086 34.1724 62.417 34.0131 61.8785 33.6946C61.3398 33.3683 60.9113 32.9247 60.5927 32.3633C60.2817 31.8021 60.1262 31.1648 60.1262 30.4518C60.1187 29.7388 60.2703 29.1017 60.5813 28.5404C60.9 27.9715 61.3285 27.5316 61.8671 27.2206C62.4056 26.902 63.0011 26.7465 63.6533 26.7541C64.3057 26.7465 64.886 26.8982 65.3942 27.2092C65.91 27.5126 66.3043 27.9488 66.5775 28.5176C66.8581 29.0789 66.9985 29.7237 66.9985 30.4518C66.9985 31.1801 66.8581 31.8248 66.5775 32.3861C66.3043 32.9474 65.91 33.3873 65.3942 33.7059ZM21.0693 20.0184H24.6192L27.7947 31.6154L31.1728 20.0184H34.1311L37.7947 31.3827L40.844 20.0184H44.098L39.2966 36.7665H36.236L32.5105 25.6645L29.0907 36.7665H25.996L21.0693 20.0184ZM49.3405 37.0623C48.104 37.0699 46.989 36.7968 45.9954 36.2431C45.0093 35.6818 44.2319 34.9043 43.6629 33.9106C43.1017 32.917 42.821 31.783 42.821 30.5086C42.821 29.2723 43.1093 28.1535 43.6858 27.1523C44.2622 26.151 45.0434 25.3697 46.0295 24.8084C47.0157 24.2471 48.1154 23.9665 49.329 23.9665C50.6944 23.9665 51.889 24.2699 52.913 24.8767C53.9447 25.4835 54.7145 26.3444 55.2228 27.4595C55.7385 28.5669 55.9244 29.8374 55.7803 31.271H46.0344C46.0617 31.8421 46.2042 32.3618 46.4619 32.8298C46.7502 33.3455 47.1522 33.7475 47.6679 34.0358C48.1838 34.324 48.7602 34.4681 49.3974 34.4681C49.8828 34.4605 50.3342 34.3771 50.7513 34.2179C51.1685 34.051 51.5212 33.8273 51.8094 33.5465C52.1053 33.2659 52.3139 32.9474 52.4353 32.5909H55.6893C55.4921 33.4631 55.0977 34.2406 54.506 34.9233C53.9143 35.5984 53.171 36.1255 52.2759 36.5048C51.3809 36.884 50.4024 37.0699 49.3405 37.0623ZM46.4733 28.1421C46.2915 28.4591 46.1655 28.8004 46.0954 29.1661H52.5558C52.5089 28.7041 52.3663 28.2832 52.128 27.9032C51.8549 27.4557 51.4833 27.1105 51.013 26.8678C50.5428 26.6175 50.0118 26.4924 49.4202 26.4924C48.7906 26.4924 48.2179 26.6365 47.702 26.9247C47.1863 27.2129 46.7767 27.6188 46.4733 28.1421ZM72.517 24.2282C72.517 23.2118 72.7483 22.3092 73.211 21.5203C73.6736 20.7239 74.3223 20.1057 75.1566 19.6657C75.9985 19.2182 76.9809 18.9868 78.1034 18.9717V21.7365C77.58 21.7441 77.1325 21.854 76.7609 22.0664C76.3968 22.2712 76.1161 22.5708 75.9189 22.9653C75.7374 23.3284 75.6394 23.7494 75.625 24.2282H78.0352V26.8565H75.6232V36.7665H72.517V26.8565H70.5145V24.2282H72.517ZM90.3341 37.0395C89.0673 37.0395 87.9333 36.7626 86.9321 36.209C85.9385 35.6476 85.1572 34.874 84.5883 33.8878C84.027 32.8942 83.7463 31.7678 83.7463 30.5086C83.7463 29.242 84.027 28.1117 84.5883 27.1181C85.1572 26.1168 85.9385 25.3393 86.9321 24.7856C87.9333 24.2319 89.0673 23.955 90.3341 23.955C91.6083 23.955 92.7462 24.2319 93.7473 24.7856C94.7562 25.3393 95.5413 26.113 96.1026 27.1067C96.6638 28.1003 96.9483 29.2343 96.956 30.5086C96.9483 31.7678 96.6638 32.8942 96.1026 33.8878C95.5488 34.874 94.7676 35.6476 93.7587 36.209C92.75 36.7626 91.6083 37.0395 90.3341 37.0395ZM90.3341 34.1837C91.0016 34.1837 91.5932 34.032 92.109 33.7286C92.6248 33.4176 93.023 32.9852 93.3037 32.4315C93.5843 31.8702 93.7246 31.2292 93.7246 30.5086C93.7246 29.7805 93.5843 29.1357 93.3037 28.5744C93.023 28.0131 92.6248 27.5808 92.109 27.2774C91.5932 26.9664 91.0016 26.8109 90.3341 26.8109C89.6742 26.8109 89.0863 26.9664 88.5705 27.2774C88.0623 27.5808 87.6678 28.0131 87.3872 28.5744C87.1066 29.1357 86.9701 29.7805 86.9776 30.5086C86.9776 31.2292 87.118 31.8702 87.3986 32.4315C87.6868 32.9852 88.0812 33.4176 88.5818 33.7286C89.0901 34.032 89.6742 34.1837 90.3341 34.1837ZM100.312 24.2282H96.8536L100.597 36.7665H103.623L106.085 28.7583L108.743 36.7665H111.724L115.479 24.2282H112.35L110.22 32.0325L107.867 24.2282H104.841L102.499 32.2044L100.312 24.2282Z" fill="black"/>
<path fill-rule="evenodd" clip-rule="evenodd" d="M16.5695 16.75L5.06002 39.25H-5.75073L-0.933983 29.925H-1.15011C-5.12386 35.0835 -11.0529 38.4794 -19.5007 39.25V30.0541C-19.5007 30.0541 -14.0964 29.7349 -10.9194 26.3947H-19.5007V16.7502H-9.85622V24.6826L-9.63976 24.6818L-5.69861 16.7502H1.59527V24.6323L1.81164 24.632L5.90064 16.75H16.5695ZM79.3323 36.7665H82.4384V18.9375H79.3323V36.7665ZM62.2085 36.5844C62.8835 36.8651 63.57 37.0054 64.2678 37.0054C65.4207 37.0054 66.4523 36.7248 67.3626 36.1634C68.2727 35.6022 68.9782 34.8286 69.4788 33.8424C69.9795 32.8488 70.2297 31.7223 70.2297 30.4632C70.2297 29.2041 69.9718 28.0777 69.4561 27.084C68.9402 26.0904 68.2235 25.3205 67.3056 24.7744C66.3878 24.2206 65.3448 23.9476 64.1767 23.9552C63.4335 23.9552 62.7205 24.0993 62.0377 24.3875C61.3551 24.6758 60.7862 25.0854 60.3311 25.6163C60.296 25.6567 60.2618 25.6976 60.2287 25.7388V18.9489H57.1112V36.7666H60.206L60.1997 35.1021C60.2797 35.2002 60.3653 35.2961 60.4562 35.3898C60.9492 35.8981 61.5333 36.2962 62.2085 36.5844ZM65.3942 33.7059C64.886 34.0169 64.3057 34.1724 63.6533 34.1724C63.0086 34.1724 62.417 34.0131 61.8785 33.6946C61.3398 33.3683 60.9113 32.9247 60.5927 32.3633C60.2817 31.8021 60.1262 31.1648 60.1262 30.4518C60.1187 29.7388 60.2703 29.1017 60.5813 28.5404C60.9 27.9715 61.3285 27.5316 61.8671 27.2206C62.4056 26.902 63.0011 26.7465 63.6533 26.7541C64.3057 26.7465 64.886 26.8982 65.3942 27.2092C65.91 27.5126 66.3043 27.9488 66.5775 28.5176C66.8581 29.0789 66.9985 29.7237 66.9985 30.4518C66.9985 31.1801 66.8581 31.8248 66.5775 32.3861C66.3043 32.9474 65.91 33.3873 65.3942 33.7059ZM21.0693 20.0184H24.6192L27.7947 31.6154L31.1728 20.0184H34.1311L37.7947 31.3827L40.844 20.0184H44.098L39.2966 36.7665H36.236L32.5105 25.6645L29.0907 36.7665H25.996L21.0693 20.0184ZM49.3405 37.0623C48.104 37.0699 46.989 36.7968 45.9954 36.2431C45.0093 35.6818 44.2319 34.9043 43.6629 33.9106C43.1017 32.917 42.821 31.783 42.821 30.5086C42.821 29.2723 43.1093 28.1535 43.6858 27.1523C44.2622 26.151 45.0434 25.3697 46.0295 24.8084C47.0157 24.2471 48.1154 23.9665 49.329 23.9665C50.6944 23.9665 51.889 24.2699 52.913 24.8767C53.9447 25.4835 54.7145 26.3444 55.2228 27.4595C55.7385 28.5669 55.9244 29.8374 55.7803 31.271H46.0344C46.0617 31.8421 46.2042 32.3618 46.4619 32.8298C46.7502 33.3455 47.1522 33.7475 47.6679 34.0358C48.1838 34.324 48.7602 34.4681 49.3974 34.4681C49.8828 34.4605 50.3342 34.3771 50.7513 34.2179C51.1685 34.051 51.5212 33.8273 51.8094 33.5465C52.1053 33.2659 52.3139 32.9474 52.4353 32.5909H55.6893C55.4921 33.4631 55.0977 34.2406 54.506 34.9233C53.9143 35.5984 53.171 36.1255 52.2759 36.5048C51.3809 36.884 50.4024 37.0699 49.3405 37.0623ZM46.4733 28.1421C46.2915 28.4591 46.1655 28.8004 46.0954 29.1661H52.5558C52.5089 28.7041 52.3663 28.2832 52.128 27.9032C51.8549 27.4557 51.4833 27.1105 51.013 26.8678C50.5428 26.6175 50.0118 26.4924 49.4202 26.4924C48.7906 26.4924 48.2179 26.6365 47.702 26.9247C47.1863 27.2129 46.7767 27.6188 46.4733 28.1421ZM72.517 24.2282C72.517 23.2118 72.7483 22.3092 73.211 21.5203C73.6736 20.7239 74.3223 20.1057 75.1566 19.6657C75.9985 19.2182 76.9809 18.9868 78.1034 18.9717V21.7365C77.58 21.7441 77.1325 21.854 76.7609 22.0664C76.3968 22.2712 76.1161 22.5708 75.9189 22.9653C75.7374 23.3284 75.6394 23.7494 75.625 24.2282H78.0352V26.8565H75.6232V36.7665H72.517V26.8565H70.5145V24.2282H72.517ZM90.3341 37.0395C89.0673 37.0395 87.9333 36.7626 86.9321 36.209C85.9385 35.6476 85.1572 34.874 84.5883 33.8878C84.027 32.8942 83.7463 31.7678 83.7463 30.5086C83.7463 29.242 84.027 28.1117 84.5883 27.1181C85.1572 26.1168 85.9385 25.3393 86.9321 24.7856C87.9333 24.2319 89.0673 23.955 90.3341 23.955C91.6083 23.955 92.7462 24.2319 93.7473 24.7856C94.7562 25.3393 95.5413 26.113 96.1026 27.1067C96.6638 28.1003 96.9483 29.2343 96.956 30.5086C96.9483 31.7678 96.6638 32.8942 96.1026 33.8878C95.5488 34.874 94.7676 35.6476 93.7587 36.209C92.75 36.7626 91.6083 37.0395 90.3341 37.0395ZM90.3341 34.1837C91.0016 34.1837 91.5932 34.032 92.109 33.7286C92.6248 33.4176 93.023 32.9852 93.3037 32.4315C93.5843 31.8702 93.7246 31.2292 93.7246 30.5086C93.7246 29.7805 93.5843 29.1357 93.3037 28.5744C93.023 28.0131 92.6248 27.5808 92.109 27.2774C91.5932 26.9664 91.0016 26.8109 90.3341 26.8109C89.6742 26.8109 89.0863 26.9664 88.5705 27.2774C88.0623 27.5808 87.6678 28.0131 87.3872 28.5744C87.1066 29.1357 86.9701 29.7805 86.9776 30.5086C86.9776 31.2292 87.118 31.8702 87.3986 32.4315C87.6868 32.9852 88.0812 33.4176 88.5818 33.7286C89.0901 34.032 89.6742 34.1837 90.3341 34.1837ZM100.312 24.2282H96.8536L100.597 36.7665H103.623L106.085 28.7583L108.743 36.7665H111.724L115.479 24.2282H112.35L110.22 32.0325L107.867 24.2282H104.841L102.499 32.2044L100.312 24.2282Z" fill="black"/>
<path d="M16.5695 16.75L5.06002 39.25H-5.75073L-0.933983 29.925H-1.15011C-5.12386 35.0835 -11.0529 38.4794 -19.5007 39.25V30.0541C-19.5007 30.0541 -14.0964 29.7349 -10.9194 26.3947H-19.5007V16.7502H-9.85622V24.6826L-9.63976 24.6818L-5.69861 16.7502H1.59527V24.6323L1.81164 24.632L5.90064 16.75H16.5695ZM79.3323 36.7665H82.4384V18.9375H79.3323V36.7665ZM62.2085 36.5844C62.8835 36.8651 63.57 37.0054 64.2678 37.0054C65.4207 37.0054 66.4523 36.7248 67.3626 36.1634C68.2727 35.6022 68.9782 34.8286 69.4788 33.8424C69.9795 32.8488 70.2297 31.7223 70.2297 30.4632C70.2297 29.2041 69.9718 28.0777 69.4561 27.084C68.9402 26.0904 68.2235 25.3205 67.3056 24.7744C66.3878 24.2206 65.3448 23.9476 64.1767 23.9552C63.4335 23.9552 62.7205 24.0993 62.0377 24.3875C61.3551 24.6758 60.7862 25.0854 60.3311 25.6163C60.296 25.6567 60.2618 25.6976 60.2287 25.7388V18.9489H57.1112V36.7666H60.206L60.1997 35.1021C60.2797 35.2002 60.3653 35.2961 60.4562 35.3898C60.9492 35.8981 61.5333 36.2962 62.2085 36.5844ZM65.3942 33.7059C64.886 34.0169 64.3057 34.1724 63.6533 34.1724C63.0086 34.1724 62.417 34.0131 61.8785 33.6946C61.3398 33.3683 60.9113 32.9247 60.5927 32.3633C60.2817 31.8021 60.1262 31.1648 60.1262 30.4518C60.1187 29.7388 60.2703 29.1017 60.5813 28.5404C60.9 27.9715 61.3285 27.5316 61.8671 27.2206C62.4056 26.902 63.0011 26.7465 63.6533 26.7541C64.3057 26.7465 64.886 26.8982 65.3942 27.2092C65.91 27.5126 66.3043 27.9488 66.5775 28.5176C66.8581 29.0789 66.9985 29.7237 66.9985 30.4518C66.9985 31.1801 66.8581 31.8248 66.5775 32.3861C66.3043 32.9474 65.91 33.3873 65.3942 33.7059ZM21.0693 20.0184H24.6192L27.7947 31.6154L31.1728 20.0184H34.1311L37.7947 31.3827L40.844 20.0184H44.098L39.2966 36.7665H36.236L32.5105 25.6645L29.0907 36.7665H25.996L21.0693 20.0184ZM49.3405 37.0623C48.104 37.0699 46.989 36.7968 45.9954 36.2431C45.0093 35.6818 44.2319 34.9043 43.6629 33.9106C43.1017 32.917 42.821 31.783 42.821 30.5086C42.821 29.2723 43.1093 28.1535 43.6858 27.1523C44.2622 26.151 45.0434 25.3697 46.0295 24.8084C47.0157 24.2471 48.1154 23.9665 49.329 23.9665C50.6944 23.9665 51.889 24.2699 52.913 24.8767C53.9447 25.4835 54.7145 26.3444 55.2228 27.4595C55.7385 28.5669 55.9244 29.8374 55.7803 31.271H46.0344C46.0617 31.8421 46.2042 32.3618 46.4619 32.8298C46.7502 33.3455 47.1522 33.7475 47.6679 34.0358C48.1838 34.324 48.7602 34.4681 49.3974 34.4681C49.8828 34.4605 50.3342 34.3771 50.7513 34.2179C51.1685 34.051 51.5212 33.8273 51.8094 33.5465C52.1053 33.2659 52.3139 32.9474 52.4353 32.5909H55.6893C55.4921 33.4631 55.0977 34.2406 54.506 34.9233C53.9143 35.5984 53.171 36.1255 52.2759 36.5048C51.3809 36.884 50.4024 37.0699 49.3405 37.0623ZM46.4733 28.1421C46.2915 28.4591 46.1655 28.8004 46.0954 29.1661H52.5558C52.5089 28.7041 52.3663 28.2832 52.128 27.9032C51.8549 27.4557 51.4833 27.1105 51.013 26.8678C50.5428 26.6175 50.0118 26.4924 49.4202 26.4924C48.7906 26.4924 48.2179 26.6365 47.702 26.9247C47.1863 27.2129 46.7767 27.6188 46.4733 28.1421ZM72.517 24.2282C72.517 23.2118 72.7483 22.3092 73.211 21.5203C73.6736 20.7239 74.3223 20.1057 75.1566 19.6657C75.9985 19.2182 76.9809 18.9868 78.1034 18.9717V21.7365C77.58 21.7441 77.1325 21.854 76.7609 22.0664C76.3968 22.2712 76.1161 22.5708 75.9189 22.9653C75.7374 23.3284 75.6394 23.7494 75.625 24.2282H78.0352V26.8565H75.6232V36.7665H72.517V26.8565H70.5145V24.2282H72.517ZM90.3341 37.0395C89.0673 37.0395 87.9333 36.7626 86.9321 36.209C85.9385 35.6476 85.1572 34.874 84.5883 33.8878C84.027 32.8942 83.7463 31.7678 83.7463 30.5086C83.7463 29.242 84.027 28.1117 84.5883 27.1181C85.1572 26.1168 85.9385 25.3393 86.9321 24.7856C87.9333 24.2319 89.0673 23.955 90.3341 23.955C91.6083 23.955 92.7462 24.2319 93.7473 24.7856C94.7562 25.3393 95.5413 26.113 96.1026 27.1067C96.6638 28.1003 96.9483 29.2343 96.956 30.5086C96.9483 31.7678 96.6638 32.8942 96.1026 33.8878C95.5488 34.874 94.7676 35.6476 93.7587 36.209C92.75 36.7626 91.6083 37.0395 90.3341 37.0395ZM90.3341 34.1837C91.0016 34.1837 91.5932 34.032 92.109 33.7286C92.6248 33.4176 93.023 32.9852 93.3037 32.4315C93.5843 31.8702 93.7246 31.2292 93.7246 30.5086C93.7246 29.7805 93.5843 29.1357 93.3037 28.5744C93.023 28.0131 92.6248 27.5808 92.109 27.2774C91.5932 26.9664 91.0016 26.8109 90.3341 26.8109C89.6742 26.8109 89.0863 26.9664 88.5705 27.2774C88.0623 27.5808 87.6678 28.0131 87.3872 28.5744C87.1066 29.1357 86.9701 29.7805 86.9776 30.5086C86.9776 31.2292 87.118 31.8702 87.3986 32.4315C87.6868 32.9852 88.0812 33.4176 88.5818 33.7286C89.0901 34.032 89.6742 34.1837 90.3341 34.1837ZM100.312 24.2282H96.8536L100.597 36.7665H103.623L106.085 28.7583L108.743 36.7665H111.724L115.479 24.2282H112.35L110.22 32.0325L107.867 24.2282H104.841L102.499 32.2044L100.312 24.2282Z" fill="black"/>
<path fill-rule="evenodd" clip-rule="evenodd" d="M16.5695 16.75L5.06002 39.25H-5.75073L-0.933983 29.925H-1.15011C-5.12386 35.0835 -11.0529 38.4794 -19.5007 39.25V30.0541C-19.5007 30.0541 -14.0964 29.7349 -10.9194 26.3947H-19.5007V16.7502H-9.85622V24.6826L-9.63976 24.6818L-5.69861 16.7502H1.59527V24.6323L1.81164 24.632L5.90064 16.75H16.5695ZM79.3323 36.7665H82.4384V18.9375H79.3323V36.7665ZM62.2085 36.5844C62.8835 36.8651 63.57 37.0054 64.2678 37.0054C65.4207 37.0054 66.4523 36.7248 67.3626 36.1634C68.2727 35.6022 68.9782 34.8286 69.4788 33.8424C69.9795 32.8488 70.2297 31.7223 70.2297 30.4632C70.2297 29.2041 69.9718 28.0777 69.4561 27.084C68.9402 26.0904 68.2235 25.3205 67.3056 24.7744C66.3878 24.2206 65.3448 23.9476 64.1767 23.9552C63.4335 23.9552 62.7205 24.0993 62.0377 24.3875C61.3551 24.6758 60.7862 25.0854 60.3311 25.6163C60.296 25.6567 60.2618 25.6976 60.2287 25.7388V18.9489H57.1112V36.7666H60.206L60.1997 35.1021C60.2797 35.2002 60.3653 35.2961 60.4562 35.3898C60.9492 35.8981 61.5333 36.2962 62.2085 36.5844ZM65.3942 33.7059C64.886 34.0169 64.3057 34.1724 63.6533 34.1724C63.0086 34.1724 62.417 34.0131 61.8785 33.6946C61.3398 33.3683 60.9113 32.9247 60.5927 32.3633C60.2817 31.8021 60.1262 31.1648 60.1262 30.4518C60.1187 29.7388 60.2703 29.1017 60.5813 28.5404C60.9 27.9715 61.3285 27.5316 61.8671 27.2206C62.4056 26.902 63.0011 26.7465 63.6533 26.7541C64.3057 26.7465 64.886 26.8982 65.3942 27.2092C65.91 27.5126 66.3043 27.9488 66.5775 28.5176C66.8581 29.0789 66.9985 29.7237 66.9985 30.4518C66.9985 31.1801 66.8581 31.8248 66.5775 32.3861C66.3043 32.9474 65.91 33.3873 65.3942 33.7059ZM21.0693 20.0184H24.6192L27.7947 31.6154L31.1728 20.0184H34.1311L37.7947 31.3827L40.844 20.0184H44.098L39.2966 36.7665H36.236L32.5105 25.6645L29.0907 36.7665H25.996L21.0693 20.0184ZM49.3405 37.0623C48.104 37.0699 46.989 36.7968 45.9954 36.2431C45.0093 35.6818 44.2319 34.9043 43.6629 33.9106C43.1017 32.917 42.821 31.783 42.821 30.5086C42.821 29.2723 43.1093 28.1535 43.6858 27.1523C44.2622 26.151 45.0434 25.3697 46.0295 24.8084C47.0157 24.2471 48.1154 23.9665 49.329 23.9665C50.6944 23.9665 51.889 24.2699 52.913 24.8767C53.9447 25.4835 54.7145 26.3444 55.2228 27.4595C55.7385 28.5669 55.9244 29.8374 55.7803 31.271H46.0344C46.0617 31.8421 46.2042 32.3618 46.4619 32.8298C46.7502 33.3455 47.1522 33.7475 47.6679 34.0358C48.1838 34.324 48.7602 34.4681 49.3974 34.4681C49.8828 34.4605 50.3342 34.3771 50.7513 34.2179C51.1685 34.051 51.5212 33.8273 51.8094 33.5465C52.1053 33.2659 52.3139 32.9474 52.4353 32.5909H55.6893C55.4921 33.4631 55.0977 34.2406 54.506 34.9233C53.9143 35.5984 53.171 36.1255 52.2759 36.5048C51.3809 36.884 50.4024 37.0699 49.3405 37.0623ZM46.4733 28.1421C46.2915 28.4591 46.1655 28.8004 46.0954 29.1661H52.5558C52.5089 28.7041 52.3663 28.2832 52.128 27.9032C51.8549 27.4557 51.4833 27.1105 51.013 26.8678C50.5428 26.6175 50.0118 26.4924 49.4202 26.4924C48.7906 26.4924 48.2179 26.6365 47.702 26.9247C47.1863 27.2129 46.7767 27.6188 46.4733 28.1421ZM72.517 24.2282C72.517 23.2118 72.7483 22.3092 73.211 21.5203C73.6736 20.7239 74.3223 20.1057 75.1566 19.6657C75.9985 19.2182 76.9809 18.9868 78.1034 18.9717V21.7365C77.58 21.7441 77.1325 21.854 76.7609 22.0664C76.3968 22.2712 76.1161 22.5708 75.9189 22.9653C75.7374 23.3284 75.6394 23.7494 75.625 24.2282H78.0352V26.8565H75.6232V36.7665H72.517V26.8565H70.5145V24.2282H72.517ZM90.3341 37.0395C89.0673 37.0395 87.9333 36.7626 86.9321 36.209C85.9385 35.6476 85.1572 34.874 84.5883 33.8878C84.027 32.8942 83.7463 31.7678 83.7463 30.5086C83.7463 29.242 84.027 28.1117 84.5883 27.1181C85.1572 26.1168 85.9385 25.3393 86.9321 24.7856C87.9333 24.2319 89.0673 23.955 90.3341 23.955C91.6083 23.955 92.7462 24.2319 93.7473 24.7856C94.7562 25.3393 95.5413 26.113 96.1026 27.1067C96.6638 28.1003 96.9483 29.2343 96.956 30.5086C96.9483 31.7678 96.6638 32.8942 96.1026 33.8878C95.5488 34.874 94.7676 35.6476 93.7587 36.209C92.75 36.7626 91.6083 37.0395 90.3341 37.0395ZM90.3341 34.1837C91.0016 34.1837 91.5932 34.032 92.109 33.7286C92.6248 33.4176 93.023 32.9852 93.3037 32.4315C93.5843 31.8702 93.7246 31.2292 93.7246 30.5086C93.7246 29.7805 93.5843 29.1357 93.3037 28.5744C93.023 28.0131 92.6248 27.5808 92.109 27.2774C91.5932 26.9664 91.0016 26.8109 90.3341 26.8109C89.6742 26.8109 89.0863 26.9664 88.5705 27.2774C88.0623 27.5808 87.6678 28.0131 87.3872 28.5744C87.1066 29.1357 86.9701 29.7805 86.9776 30.5086C86.9776 31.2292 87.118 31.8702 87.3986 32.4315C87.6868 32.9852 88.0812 33.4176 88.5818 33.7286C89.0901 34.032 89.6742 34.1837 90.3341 34.1837ZM100.312 24.2282H96.8536L100.597 36.7665H103.623L106.085 28.7583L108.743 36.7665H111.724L115.479 24.2282H112.35L110.22 32.0325L107.867 24.2282H104.841L102.499 32.2044L100.312 24.2282Z" fill="black"/>
<path d="M16.5695 16.75L5.06002 39.25H-5.75073L-0.933983 29.925H-1.15011C-5.12386 35.0835 -11.0529 38.4794 -19.5007 39.25V30.0541C-19.5007 30.0541 -14.0964 29.7349 -10.9194 26.3947H-19.5007V16.7502H-9.85622V24.6826L-9.63976 24.6818L-5.69861 16.7502H1.59527V24.6323L1.81164 24.632L5.90064 16.75H16.5695ZM79.3323 36.7665H82.4384V18.9375H79.3323V36.7665ZM62.2085 36.5844C62.8835 36.8651 63.57 37.0054 64.2678 37.0054C65.4207 37.0054 66.4523 36.7248 67.3626 36.1634C68.2727 35.6022 68.9782 34.8286 69.4788 33.8424C69.9795 32.8488 70.2297 31.7223 70.2297 30.4632C70.2297 29.2041 69.9718 28.0777 69.4561 27.084C68.9402 26.0904 68.2235 25.3205 67.3056 24.7744C66.3878 24.2206 65.3448 23.9476 64.1767 23.9552C63.4335 23.9552 62.7205 24.0993 62.0377 24.3875C61.3551 24.6758 60.7862 25.0854 60.3311 25.6163C60.296 25.6567 60.2618 25.6976 60.2287 25.7388V18.9489H57.1112V36.7666H60.206L60.1997 35.1021C60.2797 35.2002 60.3653 35.2961 60.4562 35.3898C60.9492 35.8981 61.5333 36.2962 62.2085 36.5844ZM65.3942 33.7059C64.886 34.0169 64.3057 34.1724 63.6533 34.1724C63.0086 34.1724 62.417 34.0131 61.8785 33.6946C61.3398 33.3683 60.9113 32.9247 60.5927 32.3633C60.2817 31.8021 60.1262 31.1648 60.1262 30.4518C60.1187 29.7388 60.2703 29.1017 60.5813 28.5404C60.9 27.9715 61.3285 27.5316 61.8671 27.2206C62.4056 26.902 63.0011 26.7465 63.6533 26.7541C64.3057 26.7465 64.886 26.8982 65.3942 27.2092C65.91 27.5126 66.3043 27.9488 66.5775 28.5176C66.8581 29.0789 66.9985 29.7237 66.9985 30.4518C66.9985 31.1801 66.8581 31.8248 66.5775 32.3861C66.3043 32.9474 65.91 33.3873 65.3942 33.7059ZM21.0693 20.0184H24.6192L27.7947 31.6154L31.1728 20.0184H34.1311L37.7947 31.3827L40.844 20.0184H44.098L39.2966 36.7665H36.236L32.5105 25.6645L29.0907 36.7665H25.996L21.0693 20.0184ZM49.3405 37.0623C48.104 37.0699 46.989 36.7968 45.9954 36.2431C45.0093 35.6818 44.2319 34.9043 43.6629 33.9106C43.1017 32.917 42.821 31.783 42.821 30.5086C42.821 29.2723 43.1093 28.1535 43.6858 27.1523C44.2622 26.151 45.0434 25.3697 46.0295 24.8084C47.0157 24.2471 48.1154 23.9665 49.329 23.9665C50.6944 23.9665 51.889 24.2699 52.913 24.8767C53.9447 25.4835 54.7145 26.3444 55.2228 27.4595C55.7385 28.5669 55.9244 29.8374 55.7803 31.271H46.0344C46.0617 31.8421 46.2042 32.3618 46.4619 32.8298C46.7502 33.3455 47.1522 33.7475 47.6679 34.0358C48.1838 34.324 48.7602 34.4681 49.3974 34.4681C49.8828 34.4605 50.3342 34.3771 50.7513 34.2179C51.1685 34.051 51.5212 33.8273 51.8094 33.5465C52.1053 33.2659 52.3139 32.9474 52.4353 32.5909H55.6893C55.4921 33.4631 55.0977 34.2406 54.506 34.9233C53.9143 35.5984 53.171 36.1255 52.2759 36.5048C51.3809 36.884 50.4024 37.0699 49.3405 37.0623ZM46.4733 28.1421C46.2915 28.4591 46.1655 28.8004 46.0954 29.1661H52.5558C52.5089 28.7041 52.3663 28.2832 52.128 27.9032C51.8549 27.4557 51.4833 27.1105 51.013 26.8678C50.5428 26.6175 50.0118 26.4924 49.4202 26.4924C48.7906 26.4924 48.2179 26.6365 47.702 26.9247C47.1863 27.2129 46.7767 27.6188 46.4733 28.1421ZM72.517 24.2282C72.517 23.2118 72.7483 22.3092 73.211 21.5203C73.6736 20.7239 74.3223 20.1057 75.1566 19.6657C75.9985 19.2182 76.9809 18.9868 78.1034 18.9717V21.7365C77.58 21.7441 77.1325 21.854 76.7609 22.0664C76.3968 22.2712 76.1161 22.5708 75.9189 22.9653C75.7374 23.3284 75.6394 23.7494 75.625 24.2282H78.0352V26.8565H75.6232V36.7665H72.517V26.8565H70.5145V24.2282H72.517ZM90.3341 37.0395C89.0673 37.0395 87.9333 36.7626 86.9321 36.209C85.9385 35.6476 85.1572 34.874 84.5883 33.8878C84.027 32.8942 83.7463 31.7678 83.7463 30.5086C83.7463 29.242 84.027 28.1117 84.5883 27.1181C85.1572 26.1168 85.9385 25.3393 86.9321 24.7856C87.9333 24.2319 89.0673 23.955 90.3341 23.955C91.6083 23.955 92.7462 24.2319 93.7473 24.7856C94.7562 25.3393 95.5413 26.113 96.1026 27.1067C96.6638 28.1003 96.9483 29.2343 96.956 30.5086C96.9483 31.7678 96.6638 32.8942 96.1026 33.8878C95.5488 34.874 94.7676 35.6476 93.7587 36.209C92.75 36.7626 91.6083 37.0395 90.3341 37.0395ZM90.3341 34.1837C91.0016 34.1837 91.5932 34.032 92.109 33.7286C92.6248 33.4176 93.023 32.9852 93.3037 32.4315C93.5843 31.8702 93.7246 31.2292 93.7246 30.5086C93.7246 29.7805 93.5843 29.1357 93.3037 28.5744C93.023 28.0131 92.6248 27.5808 92.109 27.2774C91.5932 26.9664 91.0016 26.8109 90.3341 26.8109C89.6742 26.8109 89.0863 26.9664 88.5705 27.2774C88.0623 27.5808 87.6678 28.0131 87.3872 28.5744C87.1066 29.1357 86.9701 29.7805 86.9776 30.5086C86.9776 31.2292 87.118 31.8702 87.3986 32.4315C87.6868 32.9852 88.0812 33.4176 88.5818 33.7286C89.0901 34.032 89.6742 34.1837 90.3341 34.1837ZM100.312 24.2282H96.8536L100.597 36.7665H103.623L106.085 28.7583L108.743 36.7665H111.724L115.479 24.2282H112.35L110.22 32.0325L107.867 24.2282H104.841L102.499 32.2044L100.312 24.2282Z" fill="black"/>
<path fill-rule="evenodd" clip-rule="evenodd" d="M16.5695 16.75L5.06002 39.25H-5.75073L-0.933983 29.925H-1.15011C-5.12386 35.0835 -11.0529 38.4794 -19.5007 39.25V30.0541C-19.5007 30.0541 -14.0964 29.7349 -10.9194 26.3947H-19.5007V16.7502H-9.85622V24.6826L-9.63976 24.6818L-5.69861 16.7502H1.59527V24.6323L1.81164 24.632L5.90064 16.75H16.5695ZM79.3323 36.7665H82.4384V18.9375H79.3323V36.7665ZM62.2085 36.5844C62.8835 36.8651 63.57 37.0054 64.2678 37.0054C65.4207 37.0054 66.4523 36.7248 67.3626 36.1634C68.2727 35.6022 68.9782 34.8286 69.4788 33.8424C69.9795 32.8488 70.2297 31.7223 70.2297 30.4632C70.2297 29.2041 69.9718 28.0777 69.4561 27.084C68.9402 26.0904 68.2235 25.3205 67.3056 24.7744C66.3878 24.2206 65.3448 23.9476 64.1767 23.9552C63.4335 23.9552 62.7205 24.0993 62.0377 24.3875C61.3551 24.6758 60.7862 25.0854 60.3311 25.6163C60.296 25.6567 60.2618 25.6976 60.2287 25.7388V18.9489H57.1112V36.7666H60.206L60.1997 35.1021C60.2797 35.2002 60.3653 35.2961 60.4562 35.3898C60.9492 35.8981 61.5333 36.2962 62.2085 36.5844ZM65.3942 33.7059C64.886 34.0169 64.3057 34.1724 63.6533 34.1724C63.0086 34.1724 62.417 34.0131 61.8785 33.6946C61.3398 33.3683 60.9113 32.9247 60.5927 32.3633C60.2817 31.8021 60.1262 31.1648 60.1262 30.4518C60.1187 29.7388 60.2703 29.1017 60.5813 28.5404C60.9 27.9715 61.3285 27.5316 61.8671 27.2206C62.4056 26.902 63.0011 26.7465 63.6533 26.7541C64.3057 26.7465 64.886 26.8982 65.3942 27.2092C65.91 27.5126 66.3043 27.9488 66.5775 28.5176C66.8581 29.0789 66.9985 29.7237 66.9985 30.4518C66.9985 31.1801 66.8581 31.8248 66.5775 32.3861C66.3043 32.9474 65.91 33.3873 65.3942 33.7059ZM21.0693 20.0184H24.6192L27.7947 31.6154L31.1728 20.0184H34.1311L37.7947 31.3827L40.844 20.0184H44.098L39.2966 36.7665H36.236L32.5105 25.6645L29.0907 36.7665H25.996L21.0693 20.0184ZM49.3405 37.0623C48.104 37.0699 46.989 36.7968 45.9954 36.2431C45.0093 35.6818 44.2319 34.9043 43.6629 33.9106C43.1017 32.917 42.821 31.783 42.821 30.5086C42.821 29.2723 43.1093 28.1535 43.6858 27.1523C44.2622 26.151 45.0434 25.3697 46.0295 24.8084C47.0157 24.2471 48.1154 23.9665 49.329 23.9665C50.6944 23.9665 51.889 24.2699 52.913 24.8767C53.9447 25.4835 54.7145 26.3444 55.2228 27.4595C55.7385 28.5669 55.9244 29.8374 55.7803 31.271H46.0344C46.0617 31.8421 46.2042 32.3618 46.4619 32.8298C46.7502 33.3455 47.1522 33.7475 47.6679 34.0358C48.1838 34.324 48.7602 34.4681 49.3974 34.4681C49.8828 34.4605 50.3342 34.3771 50.7513 34.2179C51.1685 34.051 51.5212 33.8273 51.8094 33.5465C52.1053 33.2659 52.3139 32.9474 52.4353 32.5909H55.6893C55.4921 33.4631 55.0977 34.2406 54.506 34.9233C53.9143 35.5984 53.171 36.1255 52.2759 36.5048C51.3809 36.884 50.4024 37.0699 49.3405 37.0623ZM46.4733 28.1421C46.2915 28.4591 46.1655 28.8004 46.0954 29.1661H52.5558C52.5089 28.7041 52.3663 28.2832 52.128 27.9032C51.8549 27.4557 51.4833 27.1105 51.013 26.8678C50.5428 26.6175 50.0118 26.4924 49.4202 26.4924C48.7906 26.4924 48.2179 26.6365 47.702 26.9247C47.1863 27.2129 46.7767 27.6188 46.4733 28.1421ZM72.517 24.2282C72.517 23.2118 72.7483 22.3092 73.211 21.5203C73.6736 20.7239 74.3223 20.1057 75.1566 19.6657C75.9985 19.2182 76.9809 18.9868 78.1034 18.9717V21.7365C77.58 21.7441 77.1325 21.854 76.7609 22.0664C76.3968 22.2712 76.1161 22.5708 75.9189 22.9653C75.7374 23.3284 75.6394 23.7494 75.625 24.2282H78.0352V26.8565H75.6232V36.7665H72.517V26.8565H70.5145V24.2282H72.517ZM90.3341 37.0395C89.0673 37.0395 87.9333 36.7626 86.9321 36.209C85.9385 35.6476 85.1572 34.874 84.5883 33.8878C84.027 32.8942 83.7463 31.7678 83.7463 30.5086C83.7463 29.242 84.027 28.1117 84.5883 27.1181C85.1572 26.1168 85.9385 25.3393 86.9321 24.7856C87.9333 24.2319 89.0673 23.955 90.3341 23.955C91.6083 23.955 92.7462 24.2319 93.7473 24.7856C94.7562 25.3393 95.5413 26.113 96.1026 27.1067C96.6638 28.1003 96.9483 29.2343 96.956 30.5086C96.9483 31.7678 96.6638 32.8942 96.1026 33.8878C95.5488 34.874 94.7676 35.6476 93.7587 36.209C92.75 36.7626 91.6083 37.0395 90.3341 37.0395ZM90.3341 34.1837C91.0016 34.1837 91.5932 34.032 92.109 33.7286C92.6248 33.4176 93.023 32.9852 93.3037 32.4315C93.5843 31.8702 93.7246 31.2292 93.7246 30.5086C93.7246 29.7805 93.5843 29.1357 93.3037 28.5744C93.023 28.0131 92.6248 27.5808 92.109 27.2774C91.5932 26.9664 91.0016 26.8109 90.3341 26.8109C89.6742 26.8109 89.0863 26.9664 88.5705 27.2774C88.0623 27.5808 87.6678 28.0131 87.3872 28.5744C87.1066 29.1357 86.9701 29.7805 86.9776 30.5086C86.9776 31.2292 87.118 31.8702 87.3986 32.4315C87.6868 32.9852 88.0812 33.4176 88.5818 33.7286C89.0901 34.032 89.6742 34.1837 90.3341 34.1837ZM100.312 24.2282H96.8536L100.597 36.7665H103.623L106.085 28.7583L108.743 36.7665H111.724L115.479 24.2282H112.35L110.22 32.0325L107.867 24.2282H104.841L102.499 32.2044L100.312 24.2282Z" fill="black"/>
<path d="M16.5695 16.75L5.06002 39.25H-5.75073L-0.933983 29.925H-1.15011C-5.12386 35.0835 -11.0529 38.4794 -19.5007 39.25V30.0541C-19.5007 30.0541 -14.0964 29.7349 -10.9194 26.3947H-19.5007V16.7502H-9.85622V24.6826L-9.63976 24.6818L-5.69861 16.7502H1.59527V24.6323L1.81164 24.632L5.90064 16.75H16.5695ZM79.3323 36.7665H82.4384V18.9375H79.3323V36.7665ZM62.2085 36.5844C62.8835 36.8651 63.57 37.0054 64.2678 37.0054C65.4207 37.0054 66.4523 36.7248 67.3626 36.1634C68.2727 35.6022 68.9782 34.8286 69.4788 33.8424C69.9795 32.8488 70.2297 31.7223 70.2297 30.4632C70.2297 29.2041 69.9718 28.0777 69.4561 27.084C68.9402 26.0904 68.2235 25.3205 67.3056 24.7744C66.3878 24.2206 65.3448 23.9476 64.1767 23.9552C63.4335 23.9552 62.7205 24.0993 62.0377 24.3875C61.3551 24.6758 60.7862 25.0854 60.3311 25.6163C60.296 25.6567 60.2618 25.6976 60.2287 25.7388V18.9489H57.1112V36.7666H60.206L60.1997 35.1021C60.2797 35.2002 60.3653 35.2961 60.4562 35.3898C60.9492 35.8981 61.5333 36.2962 62.2085 36.5844ZM65.3942 33.7059C64.886 34.0169 64.3057 34.1724 63.6533 34.1724C63.0086 34.1724 62.417 34.0131 61.8785 33.6946C61.3398 33.3683 60.9113 32.9247 60.5927 32.3633C60.2817 31.8021 60.1262 31.1648 60.1262 30.4518C60.1187 29.7388 60.2703 29.1017 60.5813 28.5404C60.9 27.9715 61.3285 27.5316 61.8671 27.2206C62.4056 26.902 63.0011 26.7465 63.6533 26.7541C64.3057 26.7465 64.886 26.8982 65.3942 27.2092C65.91 27.5126 66.3043 27.9488 66.5775 28.5176C66.8581 29.0789 66.9985 29.7237 66.9985 30.4518C66.9985 31.1801 66.8581 31.8248 66.5775 32.3861C66.3043 32.9474 65.91 33.3873 65.3942 33.7059ZM21.0693 20.0184H24.6192L27.7947 31.6154L31.1728 20.0184H34.1311L37.7947 31.3827L40.844 20.0184H44.098L39.2966 36.7665H36.236L32.5105 25.6645L29.0907 36.7665H25.996L21.0693 20.0184ZM49.3405 37.0623C48.104 37.0699 46.989 36.7968 45.9954 36.2431C45.0093 35.6818 44.2319 34.9043 43.6629 33.9106C43.1017 32.917 42.821 31.783 42.821 30.5086C42.821 29.2723 43.1093 28.1535 43.6858 27.1523C44.2622 26.151 45.0434 25.3697 46.0295 24.8084C47.0157 24.2471 48.1154 23.9665 49.329 23.9665C50.6944 23.9665 51.889 24.2699 52.913 24.8767C53.9447 25.4835 54.7145 26.3444 55.2228 27.4595C55.7385 28.5669 55.9244 29.8374 55.7803 31.271H46.0344C46.0617 31.8421 46.2042 32.3618 46.4619 32.8298C46.7502 33.3455 47.1522 33.7475 47.6679 34.0358C48.1838 34.324 48.7602 34.4681 49.3974 34.4681C49.8828 34.4605 50.3342 34.3771 50.7513 34.2179C51.1685 34.051 51.5212 33.8273 51.8094 33.5465C52.1053 33.2659 52.3139 32.9474 52.4353 32.5909H55.6893C55.4921 33.4631 55.0977 34.2406 54.506 34.9233C53.9143 35.5984 53.171 36.1255 52.2759 36.5048C51.3809 36.884 50.4024 37.0699 49.3405 37.0623ZM46.4733 28.1421C46.2915 28.4591 46.1655 28.8004 46.0954 29.1661H52.5558C52.5089 28.7041 52.3663 28.2832 52.128 27.9032C51.8549 27.4557 51.4833 27.1105 51.013 26.8678C50.5428 26.6175 50.0118 26.4924 49.4202 26.4924C48.7906 26.4924 48.2179 26.6365 47.702 26.9247C47.1863 27.2129 46.7767 27.6188 46.4733 28.1421ZM72.517 24.2282C72.517 23.2118 72.7483 22.3092 73.211 21.5203C73.6736 20.7239 74.3223 20.1057 75.1566 19.6657C75.9985 19.2182 76.9809 18.9868 78.1034 18.9717V21.7365C77.58 21.7441 77.1325 21.854 76.7609 22.0664C76.3968 22.2712 76.1161 22.5708 75.9189 22.9653C75.7374 23.3284 75.6394 23.7494 75.625 24.2282H78.0352V26.8565H75.6232V36.7665H72.517V26.8565H70.5145V24.2282H72.517ZM90.3341 37.0395C89.0673 37.0395 87.9333 36.7626 86.9321 36.209C85.9385 35.6476 85.1572 34.874 84.5883 33.8878C84.027 32.8942 83.7463 31.7678 83.7463 30.5086C83.7463 29.242 84.027 28.1117 84.5883 27.1181C85.1572 26.1168 85.9385 25.3393 86.9321 24.7856C87.9333 24.2319 89.0673 23.955 90.3341 23.955C91.6083 23.955 92.7462 24.2319 93.7473 24.7856C94.7562 25.3393 95.5413 26.113 96.1026 27.1067C96.6638 28.1003 96.9483 29.2343 96.956 30.5086C96.9483 31.7678 96.6638 32.8942 96.1026 33.8878C95.5488 34.874 94.7676 35.6476 93.7587 36.209C92.75 36.7626 91.6083 37.0395 90.3341 37.0395ZM90.3341 34.1837C91.0016 34.1837 91.5932 34.032 92.109 33.7286C92.6248 33.4176 93.023 32.9852 93.3037 32.4315C93.5843 31.8702 93.7246 31.2292 93.7246 30.5086C93.7246 29.7805 93.5843 29.1357 93.3037 28.5744C93.023 28.0131 92.6248 27.5808 92.109 27.2774C91.5932 26.9664 91.0016 26.8109 90.3341 26.8109C89.6742 26.8109 89.0863 26.9664 88.5705 27.2774C88.0623 27.5808 87.6678 28.0131 87.3872 28.5744C87.1066 29.1357 86.9701 29.7805 86.9776 30.5086C86.9776 31.2292 87.118 31.8702 87.3986 32.4315C87.6868 32.9852 88.0812 33.4176 88.5818 33.7286C89.0901 34.032 89.6742 34.1837 90.3341 34.1837ZM100.312 24.2282H96.8536L100.597 36.7665H103.623L106.085 28.7583L108.743 36.7665H111.724L115.479 24.2282H112.35L110.22 32.0325L107.867 24.2282H104.841L102.499 32.2044L100.312 24.2282Z" fill="black"/>
</g>
</g>
</svg>
