<svg width="41" height="41" viewBox="0 0 41 41" fill="none" xmlns="http://www.w3.org/2000/svg">
<g id="next-js 1" clip-path="url(#clip0_24_31)">
<path id="Vector" d="M18.8582 0.0529905C18.7723 0.0608022 18.4989 0.0881433 18.2528 0.107673C12.5776 0.619341 7.26167 3.68154 3.89481 8.38811C2.01999 11.005 0.820892 13.9735 0.367811 17.1177C0.20767 18.2153 0.188141 18.5395 0.188141 20.0276C0.188141 21.5157 0.20767 21.8399 0.367811 22.9375C1.45364 30.4406 6.79296 36.7447 14.0344 39.0804C15.3312 39.4984 16.6982 39.7835 18.2528 39.9553C18.8582 40.0217 21.4751 40.0217 22.0805 39.9553C24.7639 39.6585 27.0371 38.9945 29.279 37.8501C29.6228 37.6743 29.6892 37.6274 29.6423 37.5884C29.611 37.565 28.1463 35.6003 26.3887 33.2255L23.1937 28.9095L19.1902 22.9843C16.9873 19.7269 15.175 17.063 15.1593 17.063C15.1437 17.0591 15.1281 19.6917 15.1203 22.9062C15.1086 28.5346 15.1047 28.7611 15.0343 28.8939C14.9328 29.0853 14.8547 29.1634 14.6906 29.2494C14.5656 29.3119 14.4563 29.3236 13.8665 29.3236H13.1908L13.0111 29.2103C12.8939 29.1361 12.808 29.0384 12.7494 28.9252L12.6674 28.7494L12.6752 20.9181L12.6869 13.083L12.808 12.9306C12.8705 12.8486 13.0033 12.7432 13.097 12.6924C13.2572 12.6143 13.3197 12.6065 13.9954 12.6065C14.7922 12.6065 14.925 12.6377 15.132 12.8642C15.1906 12.9267 17.3583 16.192 19.9518 20.1252C22.5453 24.0585 26.0919 29.429 27.8339 32.0655L30.9976 36.858L31.1578 36.7525C32.5756 35.8307 34.0755 34.5184 35.2628 33.1513C37.7899 30.2493 39.4187 26.7105 39.9655 22.9375C40.1256 21.8399 40.1452 21.5157 40.1452 20.0276C40.1452 18.5395 40.1256 18.2153 39.9655 17.1177C38.8797 9.61456 33.5404 3.31048 26.2989 0.974775C25.0217 0.560753 23.6624 0.275625 22.1391 0.103767C21.7642 0.0647081 19.1824 0.0217435 18.8582 0.0529905ZM27.0371 12.1377C27.2246 12.2315 27.3769 12.4112 27.4316 12.5986C27.4628 12.7002 27.4706 14.8719 27.4628 19.7659L27.4511 26.7887L26.2129 24.8904L24.9709 22.9922V17.8872C24.9709 14.5867 24.9865 12.7314 25.0099 12.6416C25.0724 12.4229 25.2091 12.251 25.3966 12.1495C25.5568 12.0674 25.6153 12.0596 26.2286 12.0596C26.8066 12.0596 26.9082 12.0674 27.0371 12.1377Z" fill="white"/>
<path id="Vector_2" d="M30.8023 36.944C30.6656 37.0299 30.6227 37.0885 30.7438 37.0221C30.8297 36.9713 30.9703 36.8658 30.9469 36.8619C30.9351 36.8619 30.8687 36.901 30.8023 36.944ZM30.5328 37.1197C30.4625 37.1744 30.4625 37.1783 30.5485 37.1353C30.5953 37.1119 30.6344 37.0846 30.6344 37.0768C30.6344 37.0455 30.6149 37.0533 30.5328 37.1197ZM30.3375 37.2369C30.2672 37.2916 30.2672 37.2955 30.3532 37.2525C30.4 37.2291 30.4391 37.2017 30.4391 37.1939C30.4391 37.1627 30.4196 37.1705 30.3375 37.2369ZM30.1423 37.3541C30.0719 37.4088 30.0719 37.4127 30.1579 37.3697C30.2047 37.3463 30.2438 37.3189 30.2438 37.3111C30.2438 37.2799 30.2243 37.2877 30.1423 37.3541ZM29.8454 37.5103C29.697 37.5884 29.7048 37.6197 29.8532 37.5455C29.9196 37.5103 29.9704 37.4752 29.9704 37.4673C29.9704 37.44 29.9665 37.4439 29.8454 37.5103Z" fill="white"/>
</g>
<defs>
<clipPath id="clip0_24_31">
<rect width="40" height="40" fill="white" transform="translate(0.166656 0.0217285)"/>
</clipPath>
</defs>
</svg>
