<svg width="36" height="41" viewBox="0 0 36 41" fill="none" xmlns="http://www.w3.org/2000/svg">
<g id="react-2 1" clip-path="url(#clip0_24_38)">
<g id="Group">
<path id="Vector" d="M35.1667 20.0254C35.1667 17.6999 32.2907 15.496 27.8814 14.1294C28.899 9.5786 28.4467 5.95801 26.4541 4.79884C25.9948 4.52694 25.4577 4.39815 24.8712 4.39815V5.99378C25.1963 5.99378 25.4577 6.05818 25.6768 6.17982C26.6378 6.73794 27.0547 8.86307 26.7297 11.5964C26.6519 12.269 26.5247 12.9774 26.3693 13.7001C24.9843 13.3566 23.4721 13.0919 21.8823 12.9201C20.9283 11.5964 19.9391 10.3943 18.9427 9.34247C21.2463 7.17441 23.4085 5.98663 24.8783 5.98663V4.39099C22.9351 4.39099 20.3913 5.79343 17.8192 8.22624C15.2471 5.80774 12.7033 4.41961 10.7601 4.41961V6.01525C12.2228 6.01525 14.3921 7.19588 16.6957 9.34963C15.7064 10.4015 14.7171 11.5964 13.7773 12.9201C12.1804 13.0919 10.6682 13.3566 9.28326 13.7072C9.12074 12.9917 9.00061 12.2976 8.91582 11.6322C8.58371 8.89884 8.99355 6.77371 9.94748 6.20844C10.1595 6.07965 10.435 6.0224 10.7601 6.0224V4.42677C10.1665 4.42677 9.6295 4.55556 9.16313 4.82747C7.17754 5.98663 6.73237 9.60006 7.75696 14.1365C3.3618 15.5104 0.5 17.707 0.5 20.0254C0.5 22.3508 3.37593 24.5547 7.78523 25.9213C6.7677 30.4721 7.21993 34.0927 9.2126 35.2519C9.6719 35.5238 10.2089 35.6526 10.8025 35.6526C12.7457 35.6526 15.2895 34.2501 17.8616 31.8173C20.4337 34.2358 22.9775 35.624 24.9207 35.624C25.5143 35.624 26.0513 35.4952 26.5177 35.2233C28.5033 34.0641 28.9484 30.4507 27.9238 25.9142C32.3049 24.5475 35.1667 22.3437 35.1667 20.0254ZM25.9665 15.2528C25.7051 16.1758 25.38 17.1275 25.0126 18.0791C24.7229 17.5067 24.419 16.9343 24.0869 16.3618C23.7619 15.7894 23.4156 15.2313 23.0694 14.6875C24.0728 14.8378 25.0408 15.0238 25.9665 15.2528ZM22.7302 22.8732C22.179 23.8391 21.6137 24.755 21.0272 25.6065C19.9744 25.6995 18.9074 25.7496 17.8333 25.7496C16.7663 25.7496 15.6993 25.6995 14.6536 25.6137C14.0671 24.7622 13.4947 23.8535 12.9435 22.8946C12.4065 21.9573 11.9189 21.0056 11.4738 20.0468C11.9119 19.088 12.4065 18.1292 12.9365 17.1919C13.4876 16.2259 14.0529 15.31 14.6394 14.4585C15.6923 14.3655 16.7593 14.3154 17.8333 14.3154C18.9003 14.3154 19.9673 14.3655 21.0131 14.4514C21.5996 15.3029 22.172 16.2116 22.7231 17.1704C23.2602 18.1077 23.7477 19.0594 24.1929 20.0182C23.7477 20.977 23.2602 21.9358 22.7302 22.8732ZM25.0126 21.943C25.3941 22.9018 25.7192 23.8606 25.9877 24.7908C25.062 25.0198 24.0869 25.213 23.0764 25.3632C23.4227 24.8123 23.7689 24.247 24.094 23.6674C24.419 23.095 24.7229 22.5154 25.0126 21.943ZM17.8475 29.5777C17.1903 28.8908 16.5332 28.1252 15.8831 27.288C16.519 27.3166 17.1691 27.3381 17.8263 27.3381C18.4905 27.3381 19.1476 27.3238 19.7907 27.288C19.1547 28.1252 18.4976 28.8908 17.8475 29.5777ZM12.5902 25.3632C11.5868 25.213 10.6188 25.0269 9.6931 24.798C9.95455 23.8749 10.2796 22.9233 10.647 21.9716C10.9367 22.544 11.2406 23.1165 11.5727 23.6889C11.9048 24.2613 12.244 24.8194 12.5902 25.3632ZM17.8121 10.473C18.4693 11.1599 19.1264 11.9255 19.7765 12.7627C19.1406 12.7341 18.4905 12.7126 17.8333 12.7126C17.1691 12.7126 16.512 12.7269 15.8689 12.7627C16.5049 11.9255 17.162 11.1599 17.8121 10.473ZM12.5832 14.6875C12.2369 15.2385 11.8907 15.8037 11.5656 16.3833C11.2406 16.9557 10.9367 17.5282 10.647 18.1006C10.2655 17.1418 9.94041 16.183 9.6719 15.2528C10.5976 15.031 11.5727 14.8378 12.5832 14.6875ZM6.18827 23.646C3.68685 22.5655 2.06869 21.1487 2.06869 20.0254C2.06869 18.902 3.68685 17.4781 6.18827 16.4048C6.79597 16.14 7.46018 15.9039 8.1456 15.6821C8.54838 17.0845 9.07834 18.5442 9.73549 20.0397C9.08541 21.528 8.56251 22.9805 8.1668 24.3758C7.46725 24.154 6.80303 23.9107 6.18827 23.646ZM9.98988 33.8709C9.02888 33.3128 8.61197 31.1877 8.93702 28.4543C9.01474 27.7817 9.14194 27.0734 9.29739 26.3507C10.6824 26.6941 12.1945 26.9589 13.7844 27.1306C14.7383 28.4543 15.7276 29.6564 16.7239 30.7083C14.4204 32.8763 12.2581 34.0641 10.7884 34.0641C10.4704 34.0569 10.2019 33.9925 9.98988 33.8709ZM26.7508 28.4186C27.083 31.1519 26.6731 33.277 25.7192 33.8423C25.5072 33.9711 25.2316 34.0283 24.9066 34.0283C23.4439 34.0283 21.2746 32.8477 18.971 30.6939C19.9603 29.6421 20.9495 28.4472 21.8893 27.1234C23.4863 26.9517 24.9984 26.687 26.3834 26.3364C26.5459 27.059 26.6731 27.7531 26.7508 28.4186ZM29.4713 23.646C28.8636 23.9107 28.1994 24.1468 27.514 24.3686C27.1112 22.9662 26.5813 21.5065 25.9241 20.0111C26.5742 18.5227 27.0971 17.0702 27.4928 15.6749C28.1924 15.8967 28.8566 16.14 29.4784 16.4048C31.9798 17.4852 33.598 18.902 33.598 20.0254C33.5909 21.1487 31.9728 22.5727 29.4713 23.646Z" fill="#61DAFB"/>
<path id="Vector_2" d="M17.8263 23.2953C19.6097 23.2953 21.0555 21.8313 21.0555 20.0254C21.0555 18.2194 19.6097 16.7554 17.8263 16.7554C16.0428 16.7554 14.597 18.2194 14.597 20.0254C14.597 21.8313 16.0428 23.2953 17.8263 23.2953Z" fill="#61DAFB"/>
</g>
</g>
<defs>
<clipPath id="clip0_24_38">
<rect width="34.6667" height="40" fill="white" transform="translate(0.5 0.0217285)"/>
</clipPath>
</defs>
</svg>
